<svg id="Layer_1" data-name="Layer 1" xmlns="http://www.w3.org/2000/svg" width="787.54" height="1121" viewBox="0 0 787.54 1121"><defs><style>.cls-1{fill:#fff;}.cls-1,.cls-2{fill-rule:evenodd;}</style></defs><g id="a-mono_bust" data-name="a-mono/bust"><g id="body_mono_Polo-and-Sweater" data-name="body/mono/Polo-and-Sweater"><path id="_-Background" data-name="ðŸŽ¨-Background" class="cls-1" d="M263,1334c61.23,1.72,119.07,3.61,180.19,0,97.79-6,384.79,4.86,447.87,0,4.76-.36,21.14,4.86,21.48,0,2.77-33.8,4.57-375.84-3.67-399.37S859.92,798,808.1,745.2C793.66,731,771.67,725.43,759.52,709c-10.47-18-9.66-28.5-20-38-4.49-4.1-15.07-5.76-22.94-11.45-7.9-7.86-.42-25.16-3.66-36.11-6.69-27.32-31.34-44.85-58.28-49-37.44-9-77-.49-94.9,28.92-6.68,11-3.13,24.25-11.34,41.79.59,13.26-14.89,16.46-24.14,21.72l-18.37,18.57c-56.6,31.84-123.18,49-172.78,91.82C291,820.07,249,869.5,230.3,927.37c-3.87,15.77-5.13,32.07-6.74,48.18-4.58,47.09-17.34,92.8-28.32,138.66-12.52,57.79-24.19,119.14-7.32,177.47C192.79,1304,251.88,1333.43,263,1334Z" transform="translate(-175.18 -217.34)"/><path id="_-Ink" data-name="ðŸ–-Ink" class="cls-2" d="M556.49,608.1a1.41,1.41,0,0,1,2.76.37c1.59,15.08-.41,30.84-2.33,45.82-.92,7.23-1.45,14.75-2.85,21.88-.18.76-.35,1.53-.51,2.29a14.59,14.59,0,0,0,2.47,2.37l2.83,2.74,5.65,5.48,33.21,32.17L614,737c5.57,5.4,11.9,10.57,16.79,16.59,2.65,3.27,3.25,7.28.64,10.78a8.88,8.88,0,0,1-6,3.25,13.73,13.73,0,0,1,2.08,4.34c.92,3.28-2.4,7.31-5.93,5.94-4-1.54-7.32-4.3-11.4-5.62a27.24,27.24,0,0,0-12.87-.88,38.69,38.69,0,0,0-5.75,1.44,166.22,166.22,0,0,0,63.74,15.26,134.19,134.19,0,0,0,13.46-.21,125.27,125.27,0,0,0,22.33-3.47,136,136,0,0,0,17-5.47,87.22,87.22,0,0,0,8-3.62l.23-.14c.59-.37,11.45-6.53,11.64-7.45a2.7,2.7,0,0,0-.16-2.06,3,3,0,0,0-1.34-1.36c-3.35-1.43-6.83-2.77-10.5-2.79-8.44,0-17.65,6.19-24.63,10.44-7.67,4.67-14.72,10.13-22.1,15.19a.93.93,0,0,1-.54.17,1.16,1.16,0,0,1-1-1.71c5.29-7.79,12.43-14.28,19.9-19.94l3-2.25c6.84-5.1,14.84-10.75,23.15-12,10.19-1.5,20.83,4.85,29.92,8.57l16.1,6.59c2.87,1.17,6,2.17,8.88,3.5L762,749q-5.07-15.84-10.07-31.68l-.64-2.07c-3.32-10.73-6.36-21.89-11.89-31.68-1.32-2.35-2.83-4.56-4.32-6.79s-2.13-4.86-4.08-6.92c-3.86-4.09-9.39-6.49-14.67-8.06a1.13,1.13,0,0,1,.3-2.21,29.11,29.11,0,0,1,15.48,3l2,1c4.63,2.19,9.14,4.22,12.58,8.16,7.84,9,11.91,20.28,15.65,31.44l1,3c1.4-.46,10.91,2.44,12.1,3.13,35.65,15.07,63.11,43.13,83.19,76,22,36,34,77.2,43.87,117.94Q907.07,922,911.27,941c-12.5,4.81-25.77,7.32-37.47,14.1-4.45,2.57-.43,9.49,4,6.9,10.95-6.34,23.43-8.68,35.15-13.14,6.36,29.27,12,58.69,16.75,88.24,14.55,90.68,23.74,182.84,23.16,274.76a13.14,13.14,0,0,1-1.72,6.25,3.48,3.48,0,0,0,1.45-1.16c3.69-5.79,12.94-.42,9.23,5.4l-.54.84c-2.78,4.29-5.38,7.57-10.28,10s-10.27,2.85-15.71,3q-27.74.72-55.5,1c-2.54-19.8-3.57-39.79-7.07-59.47-.89-5.06-8.61-2.91-7.71,2.13,3.38,19,4.46,38.3,6.82,57.43-39.57.43-79.17.44-118.71.55-53.58.15-107.16,0-160.74,0h-23q-92.85,0-185.7-.61l-14.72-.11c-5.85-34.52-9.84-69.34-9.91-104.42,0-5.14-8-5.15-8,0,.07,35,4,69.87,9.81,104.38-14.65-.07-29.3,0-44,.51l-7.46.26c-14.92.51-29.88.83-44.78-.36-16.54-1.33-33.27-4.37-48.1-12.16a67.76,67.76,0,0,1-17.58-13.29c5.11-3,10.29-5.83,15.24-9.07,4.29-2.8.29-9.73-4-6.9-5.33,3.49-10.94,6.53-16.43,9.75a74,74,0,0,1-9.72-17.54c-3.91-10-5.42-20.82-6.73-31.44a306.78,306.78,0,0,1-2.19-37.72c0-26.5,2.79-52.92,6.68-79.1,3.72-25.08,8.64-50,13.84-74.76l.71-3.38c5.13-24.38,10-48.83,15.9-73,5.44-22.39,11.72-44.67,19.21-66.52,6.67,4.12,13.64,7.72,20.2,12,4.32,2.83,8.34-4.09,4-6.9-7-4.58-14.47-8.39-21.53-12.87a495.91,495.91,0,0,1,30-68.13c23.6-43.83,55.4-83,96.13-112a283.35,283.35,0,0,1,66.25-35c24-8.8,48.77-13.62,74.15-15.6a1.08,1.08,0,0,1,1.1,1.23v.12l1,.16a17.63,17.63,0,0,1,2.58-7.17c3.3-5.08,9.56-8.34,14.56-11.46l1.19-.74c6-3.69,12.22-7.32,19.14-8.61a.24.24,0,0,1,.23.4c-4.56,5.23-10.39,9.22-15.74,13.65l-1.23,1c-4.43,3.65-10.61,7.79-10.78,13.89-.19,7.18,1.28,14.65,1.81,21.81s.9,14.27,1.09,21.43a666.09,666.09,0,0,1-2.41,76.86l10-6.72c15.63-10.46,31.3-20.89,47.3-30.68,9.68-5.93,20.56-11,32.16-10.77a41.79,41.79,0,0,1,10.44,1.53c-3.79-3.59-7.42-7.41-11.13-11L583.75,731l-17.61-17.16L548.51,696.7c-5.46-5.33-11.86-10.24-11.28-18.64.47-6.7,3.88-13.37,6.21-19.83.33-.93.63-1.85.91-2.76C549.05,639.85,551.72,623.66,556.49,608.1Zm227.69,670.19c-3.64-3.65-9.3,2-5.65,5.66l1.92,1.92c3.22,3.21,6.42,6.52,8.65,10.49l.32.6c2.4,4.56,9.31.52,6.91-4C793.36,1287.29,788.64,1282.75,784.18,1278.29Zm-156.13-1a90,90,0,0,0-34.38,0c-5,1-2.91,8.68,2.13,7.72a78.67,78.67,0,0,1,30.12,0C631,1285.94,633.11,1278.23,628.05,1277.26Zm-156.67-80.64c-5-1.26-7.12,6.45-2.13,7.72l2.46.61c8.36,2.07,16.33,3.61,25,1.69,5-1.1,3-8.62-1.93-7.75l-.19,0C486.56,1200.7,479.16,1198.59,471.38,1196.62Zm278.24-52c-3.69-3.59-9.35,2.06-5.65,5.65,4.61,4.49,10.06,7.91,16.65,8.09,5.07.14,5.14-7.62.23-8h-.23C756.2,1150.28,752.68,1147.63,749.62,1144.66ZM278.8,1123.29c4.61-2.3.56-9.2-4-6.9l-27.65,13.82h0c-4.6,2.3-.55,9.21,4,6.91l27.65-13.83Zm546.33,1.77c-5.15-.15-5.14,7.85,0,8,4.84.13,9.8,2,14.11,4.06,4.61,2.24,8.67-4.66,4-6.91C837.64,1127.47,831.46,1125.23,825.13,1125.06ZM566.8,1086.43c4.23-2.88.24-9.81-4-6.91-5.83,4-11.11,8.65-16.85,12.73l-1.58,1.1c-4.23,2.87-.24,9.81,4,6.9C554.73,1095.93,560.44,1090.75,566.8,1086.43Zm297.5-58.14c-5.15,0-5.16,8,0,8h1c4.24,0,8.72-.14,12.67,1.56l.46.2c4.63,2.19,8.7-4.71,4-6.9C876.65,1028.41,870.6,1028.29,864.3,1028.29ZM420,1022.57l.67-.25c4.81-1.73,2.74-9.46-2.13-7.71-7.32,2.63-13,7.6-19.38,11.92-4.24,2.88-.24,9.81,4,6.91,5.47-3.72,10.57-8.43,16.8-10.87Zm300.07-20.81,1.08-.58c4.58-2.36.53-9.26-4-6.91-3.63,1.87-6.88,4.36-10.44,6.34l-1.08.58c-4.58,2.35-.54,9.26,4,6.9,3.63-1.87,6.88-4.35,10.44-6.33ZM598.38,924.27l-.82-.79c-3.68-3.61-9.34,2-5.66,5.65,9.21,9,20.09,15.85,31.07,22.47l2,1.2c4.42,2.65,8.45-4.26,4-6.91l-2.93-1.76c-9.77-5.89-19.41-12-27.7-19.86ZM377,916.8c3.1-4-3.64-8-6.79-4.17l-.12.13A79.89,79.89,0,0,1,359,924.22l-.75.64c-2.39,2-6.73,6.37-10.08,6.66-5.09.43-5.13,8.44,0,8s9.65-4.09,13.56-7.21A90.19,90.19,0,0,0,377,916.8Zm425.62-29.14c3.71-3.49-1.78-9-5.53-5.78L797,882c-7,6.53-16.94,8.28-25.88,10.49-5,1.24-2.88,9,2.12,7.72l4.08-1C786.42,896.92,795.59,894.27,802.62,887.66ZM644.18,837.2c-5-1.27-7.12,6.44-2.13,7.71a123.38,123.38,0,0,1,24.39,8.82c4.6,2.26,8.66-4.64,4-6.91A133,133,0,0,0,644.18,837.2ZM725.9,668.56a.52.52,0,0,1,.63-.64c9,3.34,4.21,15.1,1.42,22.14l-.51,1.29a174,174,0,0,1-17.14,32.36,272.38,272.38,0,0,1-23.09,30.19q-5.44,6.18-11.3,12l-1.47,1.46c-3.94,3.87-9,10.67-15.13,9.92-6.58-.79-10.25-7.82-5.45-13.16,3.39-3.78,8.09-6.79,11.88-10.23s7.4-6.91,11-10.52a252,252,0,0,0,20.43-23.49c6.09-8,11.91-16.18,17.2-24.7l1-1.71C719.4,686.85,728.7,677.1,725.9,668.56ZM407.82,752.35c-4.26-2.91-8.26,4-4,6.91,7.77,5.32,14.62,11.76,23,16.13,4.5,2.34,8.51-4.37,4.19-6.82l-.16-.09C422.45,764.11,415.6,757.67,407.82,752.35Z" transform="translate(-175.18 -217.34)"/></g><g id="face_Calm" data-name="face/Calm"><g id="head_mono_hat-beanie" data-name="head/mono/hat-beanie"><path id="Path" class="cls-1" d="M623,225c44.77,0,98.49,21.71,103,22.14h.13q3.6,0,28.16,21.46l-17.73,34.59,1.43,1.37c6.87,6.59,12.74,12.59,17.36,17.32,37.8,38.64,44.59,190.33,35.68,243.23s-25.4,104.66-102.2,104.66-162.24-46.18-175.4-60.56q-13.15-14.38-29.57-13.78l-1.33-1.7-1.61-.22q-22.71-3.3-32.54-8.85c-12.8-7.25-26.88-45.33-26.88-53.72s-21-68.71-21.43-75.11v-.17c0-5.35-27.45-29.91-27.45-37.72s-5.53-7.33,0-34.82l1.61-8.08c5.89-29.27,17.41-77.74,61.36-98.8C483.86,253.14,577.72,225,623,225Z" transform="translate(-175.18 -217.34)"/><path id="_-Ink-2" data-name="ðŸ–-Ink" class="cls-2" d="M428.12,275.2c24.08-25.56,160.81-65.1,230-56.72l2.07.27A122.39,122.39,0,0,1,676.5,222c17.36,4.05,35.28,10.19,49.62,20.44,12,8.39,49.73,22.08,38.6,44,4.13,7.82,5.67,17.48,2.88,25.18a30.1,30.1,0,0,1-2.22,7.65c8.82,13,15.8,27.73,21.45,41.72,9.88,35.22,16,71.88,16.92,107.81,3,68.27-4.49,149.82-64,194-35.92,28-92.19,28.92-132.56-5.77-2.29-2.71-13.06-10-9.47-11.31q1.61,1.7,3.29,3.31a.67.67,0,0,1,0-.37l-1-1c-2-1.84-4.55-4.5-1.63-4,.13.15.27.28.41.43a14.2,14.2,0,0,1,1.45,1l.19.15-.06-.06c-1.68-1.8-2.69-3.63-.17-2.46l.33.16c1.12,1.18,2.26,2.31,3.42,3.41a.65.65,0,0,1,.07-.4l-1.08-1c-1-1-.89-1-.38-1.88-2.24-3.14,2-1.28,2.24-.05,2.62-.62,4.92,4.3,6.61,4.9,74,56.89,181.39,6.41,179.65-152.11l0-3.1c-.51-50.69-4.77-102.79-25.74-148.68A132,132,0,0,0,758.42,331q-2.59-4.68-5.57-9.12a82.55,82.55,0,0,1-16.49-3.05c-1.86-.47-3.7-1-5.54-1.6-26.88,1.47-53.16,3.06-80.11,4.57l-8.42.53c-22.84,1.47-46.45,3.82-64.88,17.94-18.08,12.86-18.16,38.21-33.64,52.33-22.07,15-22.23,28.49-26.48,50.56C517.61,459.84,529.14,484,508,491c3.57,5.09-1.41,2.65-1.8.86l-.11,0c3.19,5.92-1.49,2.19-1.91.29a1.82,1.82,0,0,1-.75-.5c3.21,5.18-2,1.55-1.67.61-6.19-9.52-19-11-27.94-8.48a.48.48,0,0,1-.76.19c-38.22,8.28-28.36,87.42,10.81,79.77,1.68-.34,1.64.46,2,.54-.9-2.38,1.65-1.41,1.62-.91h.16c.12,0,.07,0,.16,0-.87-4.86,4.05,2.18,3.66,2.47a1.25,1.25,0,0,1,.47-.16l-.17-.46c-.81-2.18-.74-1.27-.74-2.52-.61-1.54-.66-.87-.51-1.87,2.15-1.67,2.79,3.4,3.51,3.77-1.23-1.72-.25-3.12.91-2.19,8.83,18.56,20.22,36,35,49.73,1.61,1.27,3.24,2.52,4.93,3.7,6.27,5.46,15.88,9,21.74,13.8a.6.6,0,0,1-.1.28l.14.12h0l.13.13,2,1a10.93,10.93,0,0,1,1.62,1.71,11.26,11.26,0,0,1,1.34,1.93c.19.84-.23,1.19-1,.83l-1-.39,0,.07c.12.17.89,2,0,1.68l-.11,0c-.49-.18-1-.38-1.46-.57.57.71,1.09,1.48,1.55,2.13a3.38,3.38,0,0,1,.91,1.79c0,.38-.23.54-.61.49-.58-.19-1.15-.39-1.72-.6l.16.31c.41.79,1,2.12,0,1.68-.87-.27-1.71-.58-2.55-.92-.07.14-.21.19-.49.06a51.48,51.48,0,0,1-7.72-3.48c-2.17-1.58-4.36-3.13-6.54-4.7A50.38,50.38,0,0,1,535.1,629a129.12,129.12,0,0,1-32.5-30.1c-14.69,12.72-44.06.57-62.22-9.39-16.07-8.9-22.39-25.36-24-43.1C413,522.56,393.44,514.38,394.8,462h-.1a14.11,14.11,0,0,1-3.94-2l-.73-1h0a6.17,6.17,0,0,1-1-.65l-.13.17c-.43.52-.14-.26-.12-.41l-1.27-1.72c-3-4.11-6.3-8.72-9-12.4l-.08.15c-.06.11-.1.2-.07.23C372,435.14,366,424,364.31,413.3c-2-8.28-1.2-16.8.52-24.47C372.21,362,396.38,301.24,428.12,275.2ZM601.67,646.45l-.4-.35.35.44a3.24,3.24,0,0,0,.68.64.54.54,0,0,1,0-.22ZM657.79,232c-46.91-4-93,6.3-137.81,18.81l-3.08.89c-25.46,7.26-52.37,13.8-73.88,29.34-30,23-45.57,59.63-59.11,93.44-11.82,25.12-5.78,53.44,12,71a288,288,0,0,1,10-51.13c1-2.62.25-3.48,2.47-3.82,3.36,45.22-13.17,78.64,19.54,132.24,14.19,25.29-2.24,43.8,37.84,57.11l1.08.41c8.35,3.16,17.47,5.64,25.65,3.88l-.73-1.19c-.75-1.23-1-1.82.11-2.35l-.11-.19q-1.32-2.49-2.54-5c-.33.11-.66.19-1,.28.22.41.25.82-.37,1a17.36,17.36,0,0,1-6.78.92l-.5,0a23.15,23.15,0,0,1-5.74-1.08c-.49-.08-1-.16-1.46-.26a33.85,33.85,0,0,1-13-6.38c-37.06-21-33.23-92.7,12.45-99.47.94-45.11,22.4-121.22,58-164.21C563,266.53,650.87,249.39,712,255.44l2.68.89c9.43.84,18.42,5,27.86,7-6.78-5.08-14.47-8.46-22.39-11.33-15.77-9.65-33.86-14.88-51.34-18.56A50.54,50.54,0,0,0,657.79,232ZM470.71,506.52c2.46-1.33,2.18,0,2.74-.42,17.67-1.44,36.72,14,46.59,26.92-.78.81-2.89-1.59-3.26-2a.45.45,0,0,1-.17.11l.28.39c4,5.74-3.93-1-4.68-2.41a.59.59,0,0,1-.41.08c.63.62,2.55,2.23,2.88,3.37l.51.42c4.8,4.12,4.41,7.21-1.05,1.37a.87.87,0,0,1,.09.72l.19.13c2.68,1.87,4.89,7.09-.72,1.73.59,3.92-5.55-3.65-5.75-3.6-10.62-8.33-26.25-16.44-39.57-17.53l-.46-.05c-2.44-.32-3.6-1-2.74-2.64-3-.72-2.3-2.2-.88-2.15-2.12-1.4-.21-2.73,1-2.21-.84-2.34,2.55-.78,2.86-1.11C470,505,470.42,507.22,470.71,506.52Zm-37-145.35c8.49-3.11,33.55,6.2,31.55,18.52-1.2,2.83-5.13,4.45-7.9,2.85l-3.61-2.42c-6.28-4.21-11.94-7.9-18.68-11.56C431.37,366.73,429.79,362.87,433.68,361.17ZM482,342.86l-3.28-2.13c-17.68-11.58-42.68-29.11,1.65-11,5.06,2.17,11.77,3.45,14.53,8.26C499.19,346.89,487.79,347.49,482,342.86Zm2-51.93c-1.41-5.38,16.24.93,21.38,2.6l.79.3c5,1.86,10.73,3.59,13.72,7.9,3.5,6-3.59,7.2-8,4.51C502.84,300.35,493,295.91,483.94,290.93Zm44.9-25.08c-9.93-10.86,16.66-.46,20.65,2.43l.11.08a4.71,4.71,0,0,1-.42,7.93C541.23,276.44,535.38,269.81,528.84,265.85ZM574.07,254c-15.8-11.35,5-5.95,12.24-1.5C591.24,256.8,586.16,264.13,574.07,254Z" transform="translate(-175.18 -217.34)"/></g><path id="_-Ink-3" data-name="ðŸ–-Ink" class="cls-2" d="M706.52,579a39.46,39.46,0,0,1-41.6-12.1c-4.45-5.17-7.33-11.45-7.22-18.16a3,3,0,0,1,.71-1.9,3.34,3.34,0,0,1,1.77-1.06,3.23,3.23,0,0,1,2.06.18,2.72,2.72,0,0,1,1.36,1.34c.77,1,1.54,2,2.31,3,6.19,7.65,12.19,13.36,21.5,15.41a26.22,26.22,0,0,0,14.74-1.08,31.57,31.57,0,0,0,13-9.1,6.92,6.92,0,0,1,5.29-2.61,8.09,8.09,0,0,1,5.67,2.49,8.77,8.77,0,0,1,2.63,5.73,7.6,7.6,0,0,1-2.18,5.63A44.24,44.24,0,0,1,706.52,579Zm-.22-95.79c7.55,4.59,19.05,15.29,10.93,26.67-9.56,10-23.33-1.47-30.11-6.67-6.29-4-13.36,6.34-7.53,11,49,36.3,68.92-29.84,30.53-36.44C705.89,477.05,704.32,481.75,706.3,483.17ZM635.66,463a8.44,8.44,0,0,0-8.45-.64c-2.47,1.12-6.81,4.87-9.83,9.8a19.41,19.41,0,0,0-3.22,11.44,2.6,2.6,0,0,1-.84,2.19,3.33,3.33,0,0,1-1.82.81,4.78,4.78,0,0,1-1.93-.18,2.83,2.83,0,0,1-1.89-1.63c-2.12-5.62-1.21-11.88,1.16-17.53,3.2-7.62,9-14,12.8-16.07a21.44,21.44,0,0,1,20.71-.1c5.54,3.06,9,8,12.46,13,.74,1.06,1.46,2.13,2.22,3.17a6.43,6.43,0,0,1,1.07,5.94,7.69,7.69,0,0,1-4.36,4.5,7.88,7.88,0,0,1-6.07.09,7.73,7.73,0,0,1-4.14-4.37c-1.61-3.88-4.31-8.17-7.87-10.45Zm123.26,8.65a5.75,5.75,0,0,1-4.8.57,6.87,6.87,0,0,1-2.82-1.68,5.57,5.57,0,0,1-1.56-2.83,11.56,11.56,0,0,0-4.08-6.78,8.13,8.13,0,0,0-6.49-1.71,12.42,12.42,0,0,0-7,4.19,15.69,15.69,0,0,0-1.51,2.21,16.11,16.11,0,0,1-2.9,3.82,2.91,2.91,0,0,1-1.8.67,2.72,2.72,0,0,1-.8-.12c-2.67-2.68-3.18-4.71-3.1-6.73a12.3,12.3,0,0,1,2.27-6.24c3.16-4.69,9.16-8.53,13.2-9.4A19.65,19.65,0,0,1,753,450.93a21.94,21.94,0,0,1,9,13.7,7.31,7.31,0,0,1-.37,4A5.67,5.67,0,0,1,758.92,471.62Zm-111-58.57c-3.33,3.24-7.26,3.75-11.24,4.19a50.78,50.78,0,0,0-5.72.85,53.45,53.45,0,0,0-13.81,5c-4.5,2.44-9.41,5.39-12.94,9.17-.83.9-1.63,1.84-2.42,2.78s-1.42,1.7-2.15,2.5-1.64,1.88-2.44,2.84a12.69,12.69,0,0,0-.69,1.22c-.15.31-.32.66-.52,1s-.59,1.08-.92,1.58c-.55.93-.85,1.19-1.11,1.31a2.37,2.37,0,0,1-1.22.23,2,2,0,0,1-1.05-.52c-1.71-1.44-2.22-3.8-2.16-6.32a27.09,27.09,0,0,1,2.78-10.63c3-6,7.19-12.29,12.22-16.79a59.35,59.35,0,0,1,19.22-11.71c4.48-1.67,9.66-3.2,14.54-3a14.38,14.38,0,0,1,9.64,3.79,8.4,8.4,0,0,1,2.52,6.15A8.78,8.78,0,0,1,647.88,413.05Zm117.81,29.67a1.92,1.92,0,0,1-.83.73,2,2,0,0,1-2.08-.35,1.85,1.85,0,0,1-.55-1c-2.21-9.7-6.49-16.91-15.64-21.56A66,66,0,0,0,732,415.68c-1.42-.33-2.93-.55-4.44-.77-4.75-.7-9.53-1.49-12.63-5.33a10.25,10.25,0,0,1-2.2-8,8.47,8.47,0,0,1,4.61-6.28c6.73-3.48,15.1-.06,21.9,2.85l1.48.63a50.85,50.85,0,0,1,17.7,11.81,38.3,38.3,0,0,1,9.09,16.8C768.75,432.74,768.46,438.17,765.69,442.72Z" transform="translate(-175.18 -217.34)"/></g></g></svg>